<svg xmlns="http://www.w3.org/2000/svg" width="27" height="27" fill="none"><path fill="#478BF9" fill-rule="evenodd" d="M0 13.5C0 20.942 6.055 27 13.5 27 20.942 27 27 20.942 27 13.5S20.942 0 13.5 0 0 6.058 0 13.5Zm5.013-9.307A12.553 12.553 0 0 1 13.5.899c3.265 0 6.244 1.248 8.485 3.292l-1.002 1.002A11.139 11.139 0 0 0 13.5 2.32a11.139 11.139 0 0 0-7.485 2.875L5.013 4.193Zm-.822.822A12.553 12.553 0 0 0 .9 13.5c0 3.265 1.248 6.244 3.292 8.484l1.002-1.002A11.139 11.139 0 0 1 2.32 13.5c0-2.878 1.087-5.501 2.873-7.483L4.191 5.015Zm.822 17.791a12.552 12.552 0 0 0 8.487 3.295c3.265 0 6.243-1.248 8.484-3.291l-1.002-1.002A11.139 11.139 0 0 1 13.5 24.68a11.139 11.139 0 0 1-7.485-2.875l-1.002 1.002ZM26.1 13.5c0 3.267-1.25 6.247-3.295 8.488l-1.002-1.002A11.139 11.139 0 0 0 24.68 13.5c0-2.879-1.088-5.503-2.875-7.485l1.002-1.002A12.553 12.553 0 0 1 26.1 13.5Z" clip-rule="evenodd"/></svg>